# xmcd
#
# Track frame offsets:
#  150
#  14798
#  28172
#  40130
#  48644
#  63812
#  74659
#  87292
#  100105
#  114618
#  129162
#  142707
#  155750
#  167875
#  179562
#  192375
#  206138
#  217424
#  232279
#  245232
#
# Disc length: 3458 seconds
#
# Revision: 0
# Processed by: cddbd v1.5.1PL2 Copyright (c) Steve Scherf et al.
# Submitted via: Collectorz.com_Music_Collector 6.9
#
DISCID=3d0d8014
DTITLE=Nat King Cole - The Essential Nat King Cole Vol 2
DYEAR=2004
DGENRE=Compilation - Vocal
TTITLE0=Mona Lisa
TTITLE1=Lost April
TTITLE2=Naughty Angeline
TTITLE3=Almost Like Being In Love
TTITLE4=Body and Soul
TTITLE5=Don't Blame Me
TTITLE6=I Like To Riff
TTITLE7=Jack The Bellboy
TTITLE8=Lush Life
TTITLE9=Are You Fer It
TTITLE10=But She's My Buddy's Chick
TTITLE11=Once In A Blue Moon
TTITLE12=Put 'em In A Box, Tie 'em With Ribbon
TTITLE13=Smoke Gets In Your Eyes
TTITLE14=You're Nobody 'Till Somebody Loves You
TTITLE15=What'll I Do
TTITLE16=This Can't Be Love
TTITLE17=That 'Aint Right
TTITLE18=Somewhere Along The Way
TTITLE19=A Portrait of Jennie
EXTD=
EXTT0=
EXTT1=
EXTT2=
EXTT3=
EXTT4=
EXTT5=
EXTT6=
EXTT7=
EXTT8=
EXTT9=
EXTT10=
EXTT11=
EXTT12=
EXTT13=
EXTT14=
EXTT15=
EXTT16=
EXTT17=
EXTT18=
EXTT19=
PLAYORDER=
